<!-- icon666.com - MILLIONS OF FREE VECTOR ICONS --><svg viewBox="0 -3 370.60239 370" xmlns="http://www.w3.org/2000/svg"><path d="m79.582031 67.78125c18.585938 0 33.742188-15.152344 33.742188-33.738281 0-18.585938-15.15625-33.742188-33.742188-33.742188-18.585937 0-33.742187 15.15625-33.742187 33.742188 0 18.636719 15.15625 33.738281 33.742187 33.738281zm0-50.070312c9.011719 0 16.332031 7.320312 16.332031 16.332031s-7.320312 16.332031-16.332031 16.332031-16.332031-7.320312-16.332031-16.332031c0-8.960938 7.320312-16.332031 16.332031-16.332031zm0 0"></path><path d="m370.5 97.121094v-.050782c0-.050781 0-.105468 0-.15625 0-.101562 0-.203124 0-.304687s0-.15625 0-.257813c0-.101562 0-.203124-.050781-.304687 0-.105469-.050781-.15625-.050781-.257813 0-.101562-.050782-.203124-.050782-.308593 0-.101563-.050781-.152344-.105468-.253907-.050782-.101562-.050782-.152343-.101563-.257812-.050781-.101562-.050781-.203125-.101563-.253906-.050781-.050782-.050781-.15625-.101562-.207032-.050781-.101562-.101562-.152343-.15625-.253906-.050781-.050781-.101562-.15625-.101562-.207031-.050782-.101563-.101563-.152344-.152344-.253906-.050782-.050781-.101563-.152344-.152344-.207031-.050781-.050782-.105469-.152344-.15625-.203126-.050781-.050781-.101562-.152343-.203125-.203124-.050781-.054688-.101563-.105469-.152344-.207032-.054687-.050781-.15625-.152344-.207031-.203125s-.101562-.105469-.203125-.15625c-.105469-.050781-.15625-.152343-.257813-.203125-.050781-.050781-.152343-.101562-.203124-.152344-.101563-.050781-.15625-.105468-.257813-.15625-.050781-.050781-.152344-.101562-.203125-.101562-.101562-.050781-.15625-.101562-.257812-.152344-.101563-.050781-.152344-.101562-.253907-.101562-.105469-.054688-.15625-.054688-.257812-.105469-.101563-.050781-.203125-.050781-.304688-.101563-.054687 0-.15625-.050781-.207031-.050781-.101562-.050781-.203125-.050781-.308594-.050781-.050781 0-.101562-.050781-.152344-.050781h-.050781c-.101562 0-.203125 0-.308593-.050781-.101563 0-.203126 0-.304688 0h-.050781c-24.269531-.871094-47.257813-9.269532-66.613281-24.320313-13.054688-10.703125-28.773438-17.871094-45.363282-20.839844-13.15625-2.304687-26.675781-1.945312-39.628906 1.128907l1.894531-11.726563c6.246094-2.046875 10.804688-7.9375 10.804688-14.847656 0-8.601563-7.015625-15.617188-15.617188-15.617188-8.601562 0-15.617187 7.015625-15.617187 15.617188 0 5.121093 2.460937 9.675781 6.300781 12.542969l-17 104.601562-49.203125-49.816406c-7.988281-8.039063-18.535156-12.441406-29.746094-12.441406h-49.203125c-14.796875 0-28.671875 7.933593-36.25 20.683593l-13.925781 23.605469c-9.933594 16.792969-7.117188 37.988281 6.808594 51.503906l24.0625 23.246094v13.160156c0 1.277344-.101563 2.355469-.253906 3.480469-.050782.460937-.101563.972656-.15625 1.382813l-14.386719 124.570312c-1.433594 12.746094 7.9375 24.371094 20.839843 25.90625.921876.101562 1.894532.152344 2.816407.152344 5.273437 0 10.339843-1.738282 14.488281-5.015625 4.914062-3.839844 8.039062-9.421875 8.808594-15.667969 0 0 0 0 0-.050781 0 0 0 0 0-.050781l11.671875-100.710938 11.671875 100.300781v.050781.050782c1.078125 8.398437 6.402344 15.71875 13.980468 19.046875 3.070313 1.382812 6.347657 2.046875 9.574219 2.046875 5.066407 0 10.085938-1.636719 14.285157-4.8125 6.707031-5.070313 10.1875-13.464844 9.0625-21.863282 0-.050781 0-.050781 0-.101562l-14.234376-123.902344c-.207031-1.589844-.410156-3.378906-.410156-4.8125v-70.09375l34.097656 34.253906s0 0 .054688.050782c4.042969 4.09375 9.574219 6.347656 15.203125 6.347656 1.28125 0 2.5625-.101562 3.890625-.359375l-28.671875 176.539063c-.613281 3.890624 2 7.578124 5.941406 8.242187.410157.050781.769531.101563 1.175781.101563 3.433594 0 6.503907-2.507813 7.066407-6.039063l26.933593-165.683594c27.390626-7.9375 57.546876-1.894531 79.714844 16.28125 20.636719 17.457031 45.621094 26.980469 70.65625 26.980469.769532 0 1.589844 0 2.355469-.050781h.050781.105469.101563c.152343 0 .253906 0 .410156-.050781h.152344c.101562 0 .257812-.050782.359374-.050782.050782 0 .101563-.050781.203126-.050781.101562-.050781.207031-.050781.308593-.101563.050781 0 .152344-.050781.203125-.050781.105469-.054687.207032-.054687.308594-.105469.050781-.050781.152344-.050781.203125-.101562.105469-.050781.207031-.101562.308594-.152344.050781-.050781.101562-.050781.152343-.101562.15625-.105469.308594-.15625.410157-.257813.050781-.050781.101562-.050781.15625-.101562.101562-.050781.203125-.152344.253906-.207031.050781-.050782.101563-.101563.152344-.101563.105469-.050781.15625-.152344.257812-.253906.050781-.050781.101563-.105469.101563-.15625.101562-.101563.152344-.152344.207031-.253907.050781-.050781.050781-.101562.101563-.152343.050781-.105469.152343-.207031.203124-.257813.050782-.050781.050782-.101562.101563-.152344.054687-.105468.105469-.207031.15625-.308593.050781-.050781.050781-.101563.101563-.203125.050781-.105469.101562-.207032.101562-.257813.050781-.050781.050781-.152343.101562-.203125.050782-.105468.050782-.15625.105469-.257812.050781-.101563.050781-.152344.101563-.253906 0-.105469.050781-.15625.050781-.257813s.050781-.203125.050781-.308594l22.015625-131.839843v-.050782c0-.101562 0-.203125.050781-.304687-.101562-.15625-.101562-.257813-.101562-.359375zm-18.484375 42.75c-16.585937-1.328125-32.460937-6.039063-46.949219-13.875l6.246094-37.578125c14.644531 7.628906 30.515625 12.234375 47.054688 13.667969zm-13.925781 83.148437c-16.179688-.460937-32.253906-5.324219-46.847656-14.128906l6.296874-37.941406c14.492188 7.785156 30.363282 12.441406 46.953126 13.824219zm-84.070313-124.515625c12.03125 3.378906 23.347657 9.164063 33.230469 17.253906 5.222656 4.09375 10.75 7.730469 16.484375 10.855469l-7.066406 42.546875c-5.527344-3.074218-10.800781-6.554687-15.871094-10.496094-10.035156-8.246093-21.65625-14.132812-33.894531-17.5625zm5.425781-39.425781-6.347656 37.886719c-2.710937-.714844-5.476562-1.328125-8.242187-1.839844-13.054688-2.253906-26.523438-1.691406-39.375 1.585938l6.09375-37.425782c15.667969-4.558594 32.308593-4.507812 47.871093-.207031zm-81.867187 98.917969c-.359375 1.332031-1.433594 2.457031-2.714844 2.765625-1.328125.359375-2.867187-.101563-3.789062-1.074219 0 0-.050781-.050781-.050781-.050781s0-.050781-.050782-.050781l-48.945312-49.203126c-.207032-.207031-.410156-.410156-.617188-.566406-.101562-.050781-.203125-.152344-.304687-.203125-.152344-.101562-.257813-.203125-.410157-.308593-.101562-.101563-.257812-.152344-.359374-.203126-.101563-.050781-.253907-.152343-.359376-.207031-.101562-.050781-.253906-.101562-.40625-.203125-.15625-.050781-.257812-.101562-.410156-.203125-.101562-.050781-.257812-.105469-.359375-.15625-.152343-.050781-.308593-.101562-.410156-.152343-.101563-.050782-.253906-.050782-.359375-.101563-.152344-.050781-.304688-.101563-.460938-.101563-.152343-.054687-.304687-.054687-.460937-.054687-.152344 0-.253906-.050781-.40625-.050781-.308594-.050782-.566406-.050782-.871094-.050782-.101562 0-.15625 0-.207031 0-.203125 0-.410156 0-.613281.050782-.152344 0-.253907.050781-.410157.050781-.152343 0-.304687.054687-.410156.054687-.152344.050782-.304687.050782-.460937.101563-.101563.050781-.253907.050781-.355469.101563-.15625.050781-.308594.101562-.410156.152343-.101563.050781-.257813.105469-.359375.15625-.152344.050781-.257813.101563-.410157.203125-.152343.050782-.253906.101563-.410156.203125-.101562.054688-.253906.15625-.355468.207031-.105469.050782-.257813.152344-.359376.203126-.15625.105468-.257812.207031-.359374.257812-.101563.050781-.203126.152344-.308594.203125-.203125.15625-.355469.308594-.511719.460937-.050781.050782-.101563.050782-.101563.101563-.203124.207031-.410156.410156-.5625.617187-.101562.101563-.152343.203126-.203124.304688-.105469.15625-.207032.257812-.308594.410156-.101563.101563-.152344.257813-.257813.359375-.050781.101563-.152343.203125-.203125.359375-.050781.152344-.152344.253906-.207031.410156-.050781.101563-.101563.253907-.152344.355469-.050781.105469-.101562.257813-.152343.410157-.050782.15625-.101563.257812-.152344.410156-.054688.152344-.054688.257812-.105469.410156s-.101563.308594-.101563.460938c-.050781.152343-.050781.308593-.050781.460937 0 .101563-.050781.253906-.050781.359375-.050781.304688-.050781.5625-.050781.867188v91.1875c0 2.511718.253906 4.917968.511719 6.863281l14.386718 123.953125v.15625.101562c.308594 2.253906-.5625 4.503906-2.355468 5.835938-1.792969 1.382812-4.199219 1.636718-6.296876.71875-1.996093-.871094-3.480468-2.972656-3.789062-5.328125l-13.671875-117.605469c-.921875-7.730469-7.371094-13.515625-15.050781-13.515625-7.785156 0-14.59375 5.9375-15.515625 13.515625l-13.71875 118.171875c-.410157 3.378906-3.382813 5.734375-6.8125 5.324219-3.480469-.410156-5.9375-3.328125-5.578125-6.707032l14.4375-124.570312c0-.050781 0-.050781 0-.101562 0-.050782 0-.105469 0-.105469.050781-.355469.050781-.765625.101562-1.125.152344-1.332031.359375-3.175781.359375-5.476563v-49.613281c0-3.6875-1.484375-7.21875-4.199219-9.832031 0 0 0 0-.050781-.050782 0 0 0 0-.050781-.050781l-7.375-7.066406 11.828125-20.222656c2.40625-4.148438 1.023437-9.472657-3.121094-11.929688-4.148437-2.40625-9.472656-1.023437-11.929687 3.121094l-13.210938 22.734375c0 .050781-.050781.101562-.050781.101562-3.125 5.480469-2.253906 12.238282 2.199219 16.589844 0 0 0 0 .054687.050782 0 0 0 0 .050781.050781l8.550782 8.140625v10.648437l-11.980469-11.570312c-8.144531-7.933594-9.78125-20.324219-3.945313-30.207031l13.925782-23.550782c4.457031-7.476562 12.597656-12.136718 21.25-12.136718h49.203125c6.554687 0 12.75 2.613281 17.40625 7.324218l53.660156 54.117188s0 0 .050781.050781c0 0 0 .050781.050782.050781.921874.921875 1.332031 2.253906 1.023437 3.429688zm14.542969 20.941406 6.039062-37.222656c15.667969-4.042969 32.050782-3.890625 47.410156.257812l-6.296874 37.578125c-2.558594-.664062-5.117188-1.226562-7.730469-1.6875-13.105469-2.355469-26.519531-1.945312-39.421875 1.074219zm0 0"></path></svg>